<svg xmlns:svg="http://www.w3.org/2000/svg" xmlns="http://www.w3.org/2000/svg" xmlns:xlink="http://www.w3.org/1999/xlink"
version="1.1" width="300" height="159" viewBox="0 0 300 160" id="svg2943">
  <path d="m 45,125 16,-81 37,0 c 16,1 24,9 24,23 0,24 -19,38 -36,37 l -18,0 -4,21 -19,0 z m 27,-36 5,-30 13,0 c 7,0 12,3 12,9 -1,17 -9,20 -18,21 l -12,0 z" id="p" style="fill-rule:evenodd"/>
  <path d="m 116,104 16,-81 19,0 -4,21 18,0 c 16,1 22,9 20,19 l -7,41 -20,0 7,-37 c 1,-5 1,-8 -6,-8 l -15,0 -9,45 -19,0 z" id="h"/>
  <use transform="translate(134,0)" id="p2" xlink:href="#p"/>
</svg>
